<svg width="24" height="25" viewBox="0 0 24 25" fill="none" xmlns="http://www.w3.org/2000/svg">
<g id="arrow 1">
<g id="Group">
<g id="Group_2">
<path id="Vector" d="M19.134 12.1967C19.134 12.4221 19.0363 12.6484 18.8631 12.8138L13.8917 17.7784C13.71 17.9515 13.5146 18.0347 13.296 18.0347C12.8211 18.0347 12.4749 17.6952 12.4749 17.2358C12.4727 17.1248 12.4938 17.0146 12.5365 16.9122C12.5793 16.8098 12.643 16.7174 12.7234 16.641L14.418 14.9232L16.6037 12.927L14.8474 13.0324H5.71715C5.22 13.0324 4.87286 12.6861 4.87286 12.1958C4.87286 11.6987 5.22 11.3524 5.71715 11.3524H14.8474L16.596 11.4578L14.4189 9.46153L12.7234 7.74381C12.643 7.66731 12.5794 7.57492 12.5366 7.47251C12.4938 7.37011 12.4728 7.25992 12.4749 7.14895C12.4749 6.68953 12.8211 6.3501 13.296 6.3501C13.5146 6.3501 13.7177 6.43324 13.9131 6.62181L18.8631 11.571C18.9482 11.6515 19.0161 11.7485 19.0626 11.8561C19.1092 11.9636 19.1335 12.0795 19.134 12.1967Z" fill="#1053F3"/>
</g>
</g>
</g>
</svg>
