<svg width="20" height="20" viewBox="0 0 20 20" fill="none" xmlns="http://www.w3.org/2000/svg">
<g id="vuesax/bold/direct">
<g id="direct">
<path id="Vector" d="M17.75 10.1919H14.85C14.0334 10.1919 13.3084 10.6419 12.9417 11.3752L12.2417 12.7586C12.075 13.0919 11.7417 13.3002 11.375 13.3002H8.64169C8.38335 13.3002 8.01669 13.2419 7.77502 12.7586L7.07502 11.3836C6.70835 10.6586 5.97502 10.2002 5.16669 10.2002H2.25002C1.92502 10.2002 1.66669 10.4586 1.66669 10.7836V13.5002C1.66669 16.5252 3.48335 18.3336 6.51669 18.3336H13.5C16.3584 18.3336 18.1167 16.7669 18.3334 13.9836V10.7752C18.3334 10.4586 18.075 10.1919 17.75 10.1919Z" fill="white"/>
<path id="Vector_2" d="M13.4917 1.6665H6.50835C3.47502 1.6665 1.66669 3.47484 1.66669 6.50817V9.0415C1.85002 8.97484 2.05002 8.9415 2.25002 8.9415H5.16669C6.45835 8.9415 7.61669 9.65817 8.19169 10.8165L8.81669 12.0415H11.2L11.825 10.8082C12.4 9.65817 13.5584 8.9415 14.85 8.9415H17.75C17.95 8.9415 18.15 8.97484 18.3334 9.0415V6.50817C18.3334 3.47484 16.525 1.6665 13.4917 1.6665ZM8.70835 4.50817H11.2917C11.6084 4.50817 11.875 4.7665 11.875 5.08317C11.875 5.40817 11.6084 5.6665 11.2917 5.6665H8.70835C8.39169 5.6665 8.12502 5.40817 8.12502 5.08317C8.12502 4.7665 8.39169 4.50817 8.70835 4.50817ZM11.9417 7.9915H8.05835C7.74169 7.9915 7.48335 7.73317 7.48335 7.4165C7.48335 7.0915 7.74169 6.83317 8.05835 6.83317H11.9417C12.2584 6.83317 12.5167 7.0915 12.5167 7.4165C12.5167 7.73317 12.2584 7.9915 11.9417 7.9915Z" fill="white"/>
</g>
</g>
</svg>
