<svg width="21" height="20" viewBox="0 0 21 20" fill="none" xmlns="http://www.w3.org/2000/svg">
<g id="Group 11">
<g id="Group">
<path id="Vector" d="M10.2933 4.79834C7.47073 4.79834 5.13202 7.09673 5.13202 9.95963C5.13202 12.8225 7.43041 15.1209 10.2933 15.1209C13.1562 15.1209 15.4546 12.7822 15.4546 9.95963C15.4546 7.13705 13.1159 4.79834 10.2933 4.79834ZM10.2933 13.2661C8.47879 13.2661 6.98686 11.7741 6.98686 9.95963C6.98686 8.14511 8.47879 6.65318 10.2933 6.65318C12.1078 6.65318 13.5998 8.14511 13.5998 9.95963C13.5998 11.7741 12.1078 13.2661 10.2933 13.2661Z" fill="#E9C6A8"/>
<path id="Vector_2" d="M15.6562 5.84701C16.302 5.84701 16.8256 5.32347 16.8256 4.67766C16.8256 4.03184 16.302 3.5083 15.6562 3.5083C15.0104 3.5083 14.4869 4.03184 14.4869 4.67766C14.4869 5.32347 15.0104 5.84701 15.6562 5.84701Z" fill="#E9C6A8"/>
<path id="Vector_3" d="M18.6804 1.65323C17.632 0.564516 16.1401 0 14.4466 0H6.14011C2.63204 0 0.293335 2.33871 0.293335 5.84677V14.1129C0.293335 15.8468 0.857851 17.3387 1.98688 18.4274C3.07559 19.4758 4.52721 20 6.18043 20H14.4062C16.1401 20 17.5917 19.4355 18.6401 18.4274C19.7288 17.379 20.2933 15.8871 20.2933 14.1532V5.84677C20.2933 4.15323 19.7288 2.70161 18.6804 1.65323ZM18.5191 14.1532C18.5191 15.4032 18.0756 16.4113 17.3498 17.0968C16.624 17.7823 15.6159 18.1452 14.4062 18.1452H6.18043C4.97075 18.1452 3.96269 17.7823 3.23688 17.0968C2.51108 16.371 2.14817 15.3629 2.14817 14.1129V5.84677C2.14817 4.6371 2.51108 3.62903 3.23688 2.90323C3.92237 2.21774 4.97075 1.85484 6.18043 1.85484H14.4869C15.6966 1.85484 16.7046 2.21774 17.4304 2.94355C18.1159 3.66935 18.5191 4.67742 18.5191 5.84677V14.1532Z" fill="#E9C6A8"/>
</g>
</g>
</svg>
