<svg width="20" height="20" viewBox="0 0 20 20" fill="none" xmlns="http://www.w3.org/2000/svg">
<g id="vuesax/bold/link">
<g id="link">
<path id="Vector" d="M10.4167 12.2917H8.33335C7.99169 12.2917 7.70835 12.0083 7.70835 11.6667C7.70835 11.325 7.99169 11.0417 8.33335 11.0417H10.4167C12.6 11.0417 14.375 9.26667 14.375 7.08333C14.375 4.9 12.6 3.125 10.4167 3.125H6.25002C4.06669 3.125 2.29169 4.9 2.29169 7.08333C2.29169 8 2.61669 8.89167 3.20002 9.6C3.41669 9.86667 3.38335 10.2583 3.11669 10.4833C2.85002 10.7 2.45835 10.6667 2.23335 10.4C1.46669 9.46667 1.04169 8.29167 1.04169 7.08333C1.04169 4.20833 3.37502 1.875 6.25002 1.875H10.4167C13.2917 1.875 15.625 4.20833 15.625 7.08333C15.625 9.95833 13.2917 12.2917 10.4167 12.2917Z" fill="white"/>
<path id="Vector_2" d="M13.75 18.1252H9.58333C6.70833 18.1252 4.375 15.7918 4.375 12.9168C4.375 10.0418 6.70833 7.7085 9.58333 7.7085H11.6667C12.0083 7.7085 12.2917 7.99183 12.2917 8.3335C12.2917 8.67516 12.0083 8.9585 11.6667 8.9585H9.58333C7.4 8.9585 5.625 10.7335 5.625 12.9168C5.625 15.1002 7.4 16.8752 9.58333 16.8752H13.75C15.9333 16.8752 17.7083 15.1002 17.7083 12.9168C17.7083 12.0002 17.3833 11.1085 16.8 10.4002C16.5833 10.1335 16.6167 9.74183 16.8833 9.51683C17.15 9.29183 17.5417 9.3335 17.7667 9.60016C18.5417 10.5335 18.9667 11.7085 18.9667 12.9168C18.9583 15.7918 16.625 18.1252 13.75 18.1252Z" fill="white"/>
</g>
</g>
</svg>
