<svg width="21" height="20" viewBox="0 0 21 20" fill="none" xmlns="http://www.w3.org/2000/svg">
<g id="216394_linkedin_social_icon 1">
<g id="Group">
<path id="Vector" d="M6.96002 15.8333H4.46002V7.5H6.96002V15.8333ZM16.1267 15.8333H13.6267V11.3817C13.6267 10.2217 13.2134 9.64417 12.3942 9.64417C11.745 9.64417 11.3334 9.9675 11.1267 10.615C11.1267 11.6667 11.1267 15.8333 11.1267 15.8333H8.62669C8.62669 15.8333 8.66002 8.33333 8.62669 7.5H10.6L10.7525 9.16667H10.8042C11.3167 8.33333 12.1359 7.76833 13.2592 7.76833C14.1134 7.76833 14.8042 8.00583 15.3317 8.6025C15.8625 9.2 16.1267 10.0017 16.1267 11.1275V15.8333Z" fill="#E9C6A8"/>
</g>
<g id="Group_2">
<path id="Vector_2" d="M5.71 6.6665C6.42337 6.6665 7.00167 6.10686 7.00167 5.4165C7.00167 4.72615 6.42337 4.1665 5.71 4.1665C4.99663 4.1665 4.41833 4.72615 4.41833 5.4165C4.41833 6.10686 4.99663 6.6665 5.71 6.6665Z" fill="#E9C6A8"/>
</g>
</g>
</svg>
