<svg width="21" height="20" viewBox="0 0 21 20" fill="none" xmlns="http://www.w3.org/2000/svg">
<g id="Group 12">
<path id="Vector" d="M10.2937 0C4.77067 0 0.293335 4.47815 0.293335 10.0004C0.293335 15.5235 4.77067 20 10.2937 20C15.8168 20 20.2933 15.5235 20.2933 10.0004C20.2933 4.47815 15.8164 0 10.2937 0ZM15.3311 7.98408C15.3364 8.09211 15.3384 8.20054 15.3384 8.31019C15.3384 11.6407 12.8035 15.4804 8.16817 15.4804C6.74517 15.4804 5.42004 15.0634 4.30487 14.3486C4.50224 14.3717 4.70245 14.3835 4.90591 14.3835C6.08687 14.3835 7.17362 13.9807 8.03578 13.3049C6.9332 13.2842 6.00281 12.5552 5.68198 11.5542C5.83549 11.5842 5.99347 11.5993 6.15591 11.5993C6.38577 11.5993 6.60831 11.5692 6.8199 11.5111C5.66655 11.2796 4.79788 10.2603 4.79788 9.04037C4.79788 9.0294 4.79788 9.01884 4.79829 9.00788C5.1378 9.19672 5.52644 9.31002 5.93986 9.32342C5.26328 8.87061 4.8186 8.10023 4.8186 7.22547C4.8186 6.76373 4.94286 6.33041 5.15973 5.95842C6.40282 7.48294 8.25995 8.48644 10.3547 8.59121C10.3116 8.40725 10.2893 8.21434 10.2893 8.01698C10.2893 6.62565 11.4174 5.49708 12.8096 5.49708C13.5345 5.49708 14.1891 5.80328 14.6488 6.29264C15.2231 6.18015 15.7624 5.96979 16.2493 5.68104C16.0605 6.2699 15.6613 6.76373 15.1406 7.07521C15.6511 7.0143 16.1368 6.87865 16.5884 6.67844C16.2513 7.18486 15.8237 7.62874 15.3311 7.98408Z" fill="#E9C6A8"/>
</g>
</svg>
